<?xml version="1.0" encoding="UTF-8" ?>
<svg version="1.1" width="64" height="16" xmlns="http://www.w3.org/2000/svg" shape-rendering="crispEdges">
<rect x="28" y="0" width="8" height="2" fill="#FF6F00" />
<rect x="27" y="1" width="1" height="5" fill="#FF6F00" />
<rect x="28" y="2" width="2" height="1" fill="#0288D1" />
<rect x="30" y="2" width="1" height="2" fill="#26C6DA" />
<rect x="31" y="2" width="2" height="4" fill="#FF6F00" />
<rect x="33" y="2" width="2" height="1" fill="#0288D1" />
<rect x="35" y="2" width="1" height="2" fill="#26C6DA" />
<rect x="28" y="3" width="1" height="1" fill="#0288D1" />
<rect x="29" y="3" width="1" height="1" fill="#26C6DA" />
<rect x="33" y="3" width="1" height="1" fill="#0288D1" />
<rect x="34" y="3" width="1" height="1" fill="#26C6DA" />
<rect x="28" y="4" width="3" height="2" fill="#FF6F00" />
<rect x="33" y="4" width="3" height="2" fill="#FF6F00" />
<rect x="30" y="6" width="4" height="7" fill="#C41411" />
<rect x="29" y="7" width="1" height="7" fill="#C41411" />
<rect x="34" y="7" width="1" height="7" fill="#C41411" />
<rect x="28" y="8" width="1" height="6" fill="#C41411" />
<rect x="35" y="8" width="1" height="6" fill="#C41411" />
<rect x="30" y="13" width="4" height="1" fill="#000000" />
<rect x="29" y="14" width="2" height="1" fill="#000000" />
<rect x="33" y="14" width="2" height="1" fill="#000000" />
<rect x="29" y="15" width="1" height="1" fill="#000000" />
<rect x="33" y="15" width="1" height="1" fill="#000000" />
</svg>